<svg width="24" height="24" viewBox="0 0 24 24" fill="none" xmlns="http://www.w3.org/2000/svg">
    <path fill-rule="evenodd" clip-rule="evenodd" d="M20.8 9.2H17.2V20.8H20.8V9.2ZM22 9C22 8.44772 21.5523 8 21 8H17C16.4477 8 16 8.44772 16 9V21C16 21.5523 16.4477 22 17 22H21C21.5523 22 22 21.5523 22 21V9Z" fill="#0B9B85"/>
    <path fill-rule="evenodd" clip-rule="evenodd" d="M13.8 3.2H10.2L10.2 20.8H13.8L13.8 3.2ZM15 3C15 2.44772 14.5523 2 14 2H10C9.44772 2 9 2.44772 9 3L9 21C9 21.5523 9.44772 22 10 22H14C14.5523 22 15 21.5523 15 21L15 3Z" fill="#0B9B85"/>
    <path fill-rule="evenodd" clip-rule="evenodd" d="M6.8 13.2H3.2L3.2 20.8H6.8L6.8 13.2ZM8 13C8 12.4477 7.55228 12 7 12H3C2.44772 12 2 12.4477 2 13L2 21C2 21.5523 2.44772 22 3 22H7C7.55228 22 8 21.5523 8 21V13Z" fill="#0B9B85"/>
</svg>
