<svg width="24" height="24" viewBox="0 0 24 24" fill="none" xmlns="http://www.w3.org/2000/svg">
    <path d="M12 2C11.6686 2 11.4 2.26863 11.4 2.6V11.4H2.6C2.26863 11.4 2 11.6686 2 12C2 12.3314 2.26863 12.6 2.6 12.6H11.4V21.4C11.4 21.7314 11.6686 22 12 22C12.3314 22 12.6 21.7314 12.6 21.4V12.6H21.4C21.7314 12.6 22 12.3314 22 12C22 11.6686 21.7314 11.4 21.4 11.4H12.6V2.6C12.6 2.26863 12.3314 2 12 2Z" fill="#9B9CB7"/>
    <path d="M16 5C16.5523 5 17 4.55228 17 4C17 3.44772 16.5523 3 16 3C15.4477 3 15 3.44772 15 4C15 4.55228 15.4477 5 16 5Z" fill="#9B9CB7"/>
    <path d="M9 10C9.55228 10 10 9.55228 10 9C10 8.44772 9.55228 8 9 8C8.44772 8 8 8.44772 8 9C8 9.55228 8.44772 10 9 10Z" fill="#9B9CB7"/>
    <path d="M8 16C8 16.5523 7.55228 17 7 17C6.44772 17 6 16.5523 6 16C6 15.4477 6.44772 15 7 15C7.55228 15 8 15.4477 8 16Z" fill="#9B9CB7"/>
    <path d="M4 8C4.55228 8 5 7.55228 5 7C5 6.44772 4.55228 6 4 6C3.44772 6 3 6.44772 3 7C3 7.55228 3.44772 8 4 8Z" fill="#9B9CB7"/>
    <path d="M21 15C21 15.5523 20.5523 16 20 16C19.4477 16 19 15.5523 19 15C19 14.4477 19.4477 14 20 14C20.5523 14 21 14.4477 21 15Z" fill="#9B9CB7"/>
    <path d="M9 21C9.55229 21 10 20.5523 10 20C10 19.4477 9.55229 19 9 19C8.44772 19 8 19.4477 8 20C8 20.5523 8.44772 21 9 21Z" fill="#9B9CB7"/>
    <path d="M16 17C16 17.5523 15.5523 18 15 18C14.4477 18 14 17.5523 14 17C14 16.4477 14.4477 16 15 16C15.5523 16 16 16.4477 16 17Z" fill="#9B9CB7"/>
</svg>
