<svg width="24" height="24" viewBox="0 0 24 24" fill="none" xmlns="http://www.w3.org/2000/svg">
    <circle cx="12" cy="12" r="9.5" fill="#0941AC" fill-opacity="0.1" stroke="#0941AC"/>
    <path fill-rule="evenodd" clip-rule="evenodd" d="M8.0749 10.6401C7.27897 10.4674 6.46898 10.058 5.65748 9.25561C5.46622 9.06649 5.46448 8.75814 5.65359 8.56688C5.84271 8.37561 6.15106 8.37387 6.34233 8.56298C7.03262 9.24552 7.68007 9.55776 8.28142 9.68822C8.89257 9.82081 9.49081 9.77376 10.1037 9.68178C10.2424 9.66096 10.3861 9.63685 10.5326 9.61227C10.9993 9.53396 11.4945 9.45086 11.9492 9.45406C12.59 9.45857 13.2258 9.62788 13.7847 10.1868C14.3434 10.7455 14.514 11.382 14.5214 12.0235C14.5266 12.478 14.4468 12.9734 14.3715 13.4405C14.3476 13.5887 14.3242 13.734 14.3041 13.8743C14.216 14.489 14.173 15.0886 14.3096 15.6998C14.4441 16.3013 14.7606 16.9475 15.447 17.6339C15.6372 17.8241 15.6372 18.1324 15.447 18.3226C15.2568 18.5128 14.9484 18.5128 14.7583 18.3226C13.9513 17.5157 13.5369 16.7078 13.359 15.9123C13.1834 15.1266 13.2467 14.3864 13.3399 13.7361C13.3664 13.5514 13.3942 13.3785 13.4205 13.2148C13.4913 12.7736 13.5516 12.3983 13.5474 12.0347C13.5422 11.5789 13.4313 11.2109 13.096 10.8756C12.7609 10.5405 12.395 10.4313 11.9424 10.4281C11.5797 10.4255 11.2053 10.4881 10.7642 10.5619C10.6022 10.589 10.4311 10.6176 10.2482 10.645C9.59992 10.7423 8.86104 10.8107 8.0749 10.6401Z" fill="#0941AC"/>
    <path fill-rule="evenodd" clip-rule="evenodd" d="M10.6401 8.07497C10.4674 7.27903 10.058 6.46904 9.25561 5.65755C9.06649 5.46628 8.75814 5.46454 8.56688 5.65365C8.37561 5.84277 8.37387 6.15112 8.56298 6.34239C9.24552 7.03268 9.55776 7.68013 9.68822 8.28148C9.82081 8.89263 9.77376 9.49087 9.68178 10.1037C9.66096 10.2425 9.63685 10.3862 9.61227 10.5327C9.53396 10.9994 9.45086 11.4946 9.45406 11.9493C9.45857 12.5901 9.62788 13.2258 10.1868 13.7848C10.7455 14.3434 11.382 14.5141 12.0235 14.5215C12.478 14.5267 12.9734 14.4468 13.4405 14.3716C13.5887 14.3477 13.734 14.3243 13.8743 14.3041C14.489 14.2161 15.0886 14.173 15.6998 14.3097C16.3013 14.4441 16.9475 14.7606 17.6339 15.4471C17.8241 15.6372 18.1324 15.6372 18.3226 15.4471C18.5128 15.2569 18.5128 14.9485 18.3226 14.7583C17.5157 13.9514 16.7078 13.5369 15.9123 13.3591C15.1266 13.1835 14.3864 13.2468 13.7361 13.34C13.5514 13.3664 13.3785 13.3942 13.2148 13.4205C12.7736 13.4914 12.3983 13.5517 12.0347 13.5475C11.5789 13.5422 11.2109 13.4314 10.8756 13.096C10.5405 12.761 10.4313 12.3951 10.4281 11.9425C10.4255 11.5798 10.4881 11.2054 10.5619 10.7643C10.589 10.6022 10.6176 10.4311 10.645 10.2483C10.7423 9.59998 10.8107 8.8611 10.6401 8.07497Z" fill="#0941AC"/>
    <path fill-rule="evenodd" clip-rule="evenodd" d="M7.21129 8.89354C7.0528 8.73505 7.0528 8.47808 7.21129 8.31959L8.3592 7.17169C8.51769 7.01319 8.77466 7.01319 8.93315 7.17169C9.09164 7.33018 9.09164 7.58715 8.93315 7.74564L7.78524 8.89354C7.62675 9.05204 7.36979 9.05204 7.21129 8.89354Z" fill="#F96262" fill-opacity="0.4"/>
    <path fill-rule="evenodd" clip-rule="evenodd" d="M15.1168 16.799C14.9583 16.6405 14.9583 16.3835 15.1168 16.225L16.2647 15.0771C16.4232 14.9187 16.6802 14.9187 16.8387 15.0771C16.9972 15.2356 16.9972 15.4926 16.8387 15.6511L15.6908 16.799C15.5323 16.9575 15.2753 16.9575 15.1168 16.799Z" fill="#F96262" fill-opacity="0.4"/>
    <path fill-rule="evenodd" clip-rule="evenodd" d="M11.1659 12.8479C11.0074 12.6894 11.0074 12.4324 11.1659 12.2739L12.3138 11.126C12.4723 10.9675 12.7292 10.9675 12.8877 11.126C13.0462 11.2845 13.0462 11.5415 12.8877 11.7L11.7398 12.8479C11.5813 13.0064 11.3244 13.0064 11.1659 12.8479Z" fill="#F96262" fill-opacity="0.4"/>
    <circle cx="14.5" cy="6.5" r="0.5" fill="#0B9B85"/>
    <circle cx="10.5" cy="18.5" r="0.5" fill="#FFA73F"/>
    <circle cx="6.5" cy="13.5" r="0.5" fill="#F96262"/>
    <circle cx="17.5" cy="10.5" r="0.5" fill="#F96262"/>
</svg>
