<svg width="24" height="24" viewBox="0 0 24 24" fill="none" xmlns="http://www.w3.org/2000/svg">	<path fill-rule="evenodd" clip-rule="evenodd" d="M11.9999 3.23525C11.613 5.39787 10.3019 7.52666 9.12014 9.41686C9.07557 9.48814 9.03117 9.5591 8.98695 9.62975C8.36606 10.622 7.78385 11.5524 7.34412 12.4324C6.87058 13.38 6.5998 14.1989 6.5999 14.9032C6.60009 16.2119 7.54942 17.0448 8.87227 17.9736C8.98878 18.0554 9.10848 18.1383 9.22986 18.2222C9.75702 18.587 10.3158 18.9736 10.7818 19.3936C11.314 19.8731 11.7897 20.4499 11.9999 21.1837C12.2101 20.4499 12.6858 19.8731 13.218 19.3936C13.684 18.9736 14.2428 18.587 14.7699 18.2222C14.8913 18.1383 15.011 18.0554 15.1275 17.9736C16.4504 17.0448 17.3997 16.2119 17.3999 14.9032C17.4 14.1989 17.1292 13.38 16.6557 12.4324C16.216 11.5524 15.6337 10.622 15.0128 9.62974C14.9686 9.5591 14.9242 9.48813 14.8797 9.41686C13.6979 7.52666 12.3869 5.39787 11.9999 3.23525ZM10.8955 2.43753C10.9399 1.88822 11.3893 1.40002 11.9999 1.40002C12.6105 1.40002 13.0599 1.88822 13.1043 2.43753C13.2706 4.49338 14.5496 6.62535 15.8972 8.7807C15.9442 8.85598 15.9914 8.93128 16.0385 9.00659C16.6503 9.98405 17.2624 10.962 17.7291 11.896C18.2293 12.8969 18.6 13.9179 18.5999 14.9033C18.5996 16.9027 17.0898 18.0621 15.8171 18.9557C15.6838 19.0493 15.5527 19.1401 15.4243 19.2291C14.9023 19.5907 14.4245 19.9217 14.0213 20.285C13.5275 20.73 13.2224 21.1593 13.1229 21.638C13.0264 22.1025 12.6248 22.6 11.9999 22.6C11.375 22.6 10.9734 22.1025 10.8769 21.638C10.7774 21.1593 10.4723 20.73 9.97851 20.285C9.57535 19.9217 9.09752 19.5907 8.57548 19.2291C8.44708 19.1401 8.31601 19.0493 8.18272 18.9557C6.91001 18.0621 5.40019 16.9027 5.3999 14.9033C5.39976 13.9179 5.77051 12.8969 6.27067 11.896C6.73738 10.962 7.34948 9.98405 7.9613 9.00659C8.00844 8.93128 8.05557 8.85598 8.10263 8.7807C9.45018 6.62535 10.7292 4.49338 10.8955 2.43753Z" fill="#9B9CB7"/></svg>